<?xml version="1.0" standalone="no"?>
<!DOCTYPE svg PUBLIC "-//W3C//DTD SVG 20010904//EN"
 "http://www.w3.org/TR/2001/REC-SVG-20010904/DTD/svg10.dtd">
<svg version="1.0" xmlns="http://www.w3.org/2000/svg"
 width="72.000000pt" height="72.000000pt" viewBox="0 0 72.000000 72.000000"
 preserveAspectRatio="xMidYMid meet">

<g transform="translate(0.000000,72.000000) scale(0.100000,-0.100000)"
fill="#000000" stroke="none">
<path d="M323 695 c-14 -10 -23 -28 -25 -53 -2 -29 -9 -40 -31 -50 -25 -12
-30 -11 -58 12 -36 31 -59 33 -90 8 -30 -25 -30 -74 1 -107 20 -21 22 -28 12
-50 -9 -19 -19 -25 -42 -25 -35 0 -80 -38 -80 -68 0 -36 38 -72 76 -72 28 0
36 -5 44 -25 8 -20 5 -32 -15 -62 -53 -77 26 -150 100 -91 40 31 79 16 83 -32
5 -46 28 -70 67 -70 41 0 65 27 65 71 0 29 5 36 28 45 24 9 32 8 56 -13 74
-64 153 17 94 97 -18 25 -20 33 -10 55 9 20 19 25 46 25 38 0 76 36 76 72 0
31 -45 68 -83 68 -29 0 -36 4 -41 26 -5 17 0 33 14 51 43 55 9 131 -54 119
-17 -4 -39 -15 -50 -25 -15 -16 -24 -17 -47 -9 -25 9 -29 15 -29 48 0 61 -57
90 -107 55z m116 -195 c52 -26 85 -81 85 -140 0 -161 -199 -220 -297 -89 -57
77 -12 206 83 242 32 12 93 6 129 -13z"/>
</g>
</svg>
